<svg xmlns="http://www.w3.org/2000/svg" viewBox="0 0 64 64">
  <defs>
    <radialGradient id="body" cx="38%" cy="32%" r="75%">
      <stop offset="0" stop-color="#2A4556"/>
      <stop offset=".55" stop-color="#10202D"/>
      <stop offset="1" stop-color="#050B10"/>
    </radialGradient>
    <radialGradient id="core" cx="50%" cy="50%" r="50%">
      <stop offset="0" stop-color="#FFFFFF"/>
      <stop offset=".35" stop-color="#7FF2E6"/>
      <stop offset="1" stop-color="#00A89C" stop-opacity="0"/>
    </radialGradient>
    <clipPath id="c"><circle cx="32" cy="32" r="27"/></clipPath>
  </defs>
  <rect width="64" height="64" rx="14" fill="#0B1620"/>
  <circle cx="32" cy="32" r="27" fill="url(#body)"/>
  <g clip-path="url(#c)" stroke="#02070B" stroke-width="1.6">
    <path d="M4 14H60M4 20H60M4 26H60M4 38H60M4 44H60M4 50H60"/>
  </g>
  <g clip-path="url(#c)" fill="#3CE6D2">
    <circle cx="20" cy="17" r="1.3"/><circle cx="24" cy="17" r="1.3"/><circle cx="28" cy="17" r="1.3"/>
    <circle cx="40" cy="23" r="1.3"/><circle cx="44" cy="23" r="1.3"/>
    <circle cx="14" cy="41" r="1.3"/><circle cx="18" cy="41" r="1.3"/><circle cx="22" cy="41" r="1.3"/>
    <circle cx="36" cy="47" r="1.3"/><circle cx="40" cy="47" r="1.3"/><circle cx="44" cy="47" r="1.3"/><circle cx="48" cy="47" r="1.3"/>
  </g>
  <rect x="5" y="30.6" width="54" height="2.8" fill="#00A89C" clip-path="url(#c)"/>
  <circle cx="40" cy="32" r="9" fill="url(#core)"/>
  <circle cx="32" cy="32" r="27" fill="none" stroke="#3E6A84" stroke-width="1.4"/>
</svg>
